<svg width="16" height="16" viewBox="0 0 16 16" fill="none" xmlns="http://www.w3.org/2000/svg">
<path d="M10.1205 6.40099C10.3994 6.67685 10.6208 7.00444 10.7718 7.36503C10.9228 7.72562 11.0005 8.11213 11.0005 8.50248C11.0005 8.89282 10.9228 9.27933 10.7718 9.63992C10.6208 10.0005 10.3994 10.3281 10.1205 10.604M5.87955 10.599C5.60056 10.3231 5.37923 9.99556 5.22823 9.63497C5.07722 9.27438 4.9995 8.88787 4.9995 8.49753C4.9995 8.10718 5.07722 7.72067 5.22823 7.36008C5.37923 6.99949 5.60056 6.6719 5.87955 6.39604M11.5358 5C12.4733 5.92835 13 7.18731 13 8.5C13 9.81269 12.4733 11.0716 11.5358 12M4.46424 12C3.52669 11.0716 3 9.81269 3 8.5C3 7.18731 3.52669 5.92835 4.46424 5M9.00021 8.5C9.00021 9.04682 8.5524 9.4901 8 9.4901C7.4476 9.4901 6.99979 9.04682 6.99979 8.5C6.99979 7.95319 7.4476 7.5099 8 7.5099C8.5524 7.5099 9.00021 7.95319 9.00021 8.5Z" stroke="#8B8B9A"/>
</svg>
