<svg width="26" height="16" viewBox="0 0 26 16" fill="none" xmlns="http://www.w3.org/2000/svg">
<path opacity="0.08" d="M14.5 7.13397C15.1667 7.51888 15.1667 8.48112 14.5 8.86602L5.5 14.0622C4.83333 14.4471 4 13.966 4 13.1962L4 2.80385C4 2.03405 4.83333 1.55292 5.5 1.93782L14.5 7.13397Z" fill="#1E1E2E"/>
<path opacity="0.16" d="M19.5 7.13397C20.1667 7.51888 20.1667 8.48112 19.5 8.86602L10.5 14.0622C9.83333 14.4471 9 13.966 9 13.1962L9 2.80385C9 2.03405 9.83333 1.55292 10.5 1.93782L19.5 7.13397Z" fill="#1E1E2E"/>
<path d="M24.5 7.13397C25.1667 7.51888 25.1667 8.48112 24.5 8.86602L15.5 14.0622C14.8333 14.4471 14 13.966 14 13.1962L14 2.80385C14 2.03405 14.8333 1.55292 15.5 1.93782L24.5 7.13397Z" fill="#1E1E2E"/>
</svg>
