<svg width="20" height="20" viewBox="0 0 20 20" fill="none" xmlns="http://www.w3.org/2000/svg">
<path fill-rule="evenodd" clip-rule="evenodd" d="M0 10C0 4.47715 4.47715 0 10 0C15.5228 0 20 4.47715 20 10C20 15.5228 15.5228 20 10 20C4.47715 20 0 15.5228 0 10ZM7.06651 8.28242H4.80029V15.0915H7.06651V8.28242ZM7.21631 6.17612C7.20161 5.5085 6.72419 5 5.94893 5C5.17367 5 4.66683 5.5085 4.66683 6.17612C4.66683 6.82992 5.15869 7.35306 5.91951 7.35306H5.93399C6.72418 7.35306 7.21631 6.82992 7.21631 6.17612ZM15.2394 11.1874C15.2394 9.09593 14.1214 8.12254 12.6301 8.12254C11.4269 8.12254 10.8882 8.78343 10.5875 9.24706V8.28261H8.32097C8.35084 8.92154 8.32097 15.0917 8.32097 15.0917H10.5875V11.2889C10.5875 11.0854 10.6022 10.8824 10.6621 10.7367C10.8259 10.3302 11.1988 9.90926 11.8249 9.90926C12.6453 9.90926 12.9732 10.5336 12.9732 11.4486V15.0915H15.2393L15.2394 11.1874Z" fill="#8B8B9A"/>
</svg>
