<svg width="20" height="20" viewBox="0 0 20 20" fill="none" xmlns="http://www.w3.org/2000/svg">
<path fill-rule="evenodd" clip-rule="evenodd" d="M0 10C0 4.47715 4.47715 0 10 0C15.5228 0 20 4.47715 20 10C20 15.5228 15.5228 20 10 20C4.47715 20 0 15.5228 0 10ZM10.2048 8.32699L10.2258 8.67301L9.87603 8.63064C8.60297 8.46822 7.4908 7.91741 6.5465 6.99233L6.08485 6.53332L5.96594 6.87228C5.71413 7.62788 5.87501 8.42585 6.39961 8.96254C6.67941 9.25913 6.61645 9.3015 6.13381 9.12496C5.96594 9.06847 5.81905 9.02609 5.80506 9.04728C5.75609 9.09671 5.92397 9.73933 6.05687 9.99355C6.23873 10.3466 6.60946 10.6927 7.01516 10.8974L7.3579 11.0599L6.9522 11.0669C6.56049 11.0669 6.5465 11.074 6.58847 11.2223C6.72837 11.6813 7.28096 12.1685 7.8965 12.3804L8.33018 12.5287L7.95246 12.7547C7.39287 13.0795 6.73536 13.2631 6.07785 13.2772C5.76309 13.2843 5.50428 13.3125 5.50428 13.3337C5.50428 13.4043 6.35765 13.7998 6.85428 13.9552C8.34417 14.4142 10.1139 14.2164 11.4429 13.4326C12.3872 12.8747 13.3315 11.766 13.7721 10.6927C14.01 10.1207 14.2478 9.07553 14.2478 8.57415C14.2478 8.24931 14.2688 8.20694 14.6605 7.81855C14.8913 7.59257 15.1081 7.34541 15.1501 7.2748C15.22 7.14062 15.2131 7.14062 14.8563 7.26067C14.2618 7.47252 14.1778 7.44428 14.4716 7.1265C14.6884 6.90053 14.9473 6.49095 14.9473 6.3709C14.9473 6.34972 14.8423 6.38503 14.7234 6.44858C14.5975 6.5192 14.3177 6.62512 14.1079 6.68868L13.7302 6.80873L13.3874 6.57569C13.1986 6.44858 12.9328 6.30735 12.7929 6.26498C12.4361 6.16611 11.8905 6.18024 11.5688 6.29322C10.6944 6.611 10.1418 7.43015 10.2048 8.32699Z" fill="#8B8B9A"/>
</svg>
