<svg width="20" height="20" viewBox="0 0 20 20" fill="none" xmlns="http://www.w3.org/2000/svg">
<path fill-rule="evenodd" clip-rule="evenodd" d="M0 10C0 4.47715 4.47715 0 10 0C15.5228 0 20 4.47715 20 10C20 15.5228 15.5228 20 10 20C4.47715 20 0 15.5228 0 10ZM15.1104 7.53051C14.9878 7.05926 14.6263 6.68816 14.1673 6.56222C13.3356 6.33333 10 6.33333 10 6.33333C10 6.33333 6.66442 6.33333 5.83261 6.56222C5.37364 6.68816 5.01218 7.05926 4.88952 7.53051C4.66667 8.3846 4.66667 10.1667 4.66667 10.1667C4.66667 10.1667 4.66667 11.9487 4.88952 12.8028C5.01218 13.2741 5.37364 13.6452 5.83261 13.7712C6.66442 14 10 14 10 14C10 14 13.3356 14 14.1673 13.7712C14.6263 13.6452 14.9878 13.2741 15.1104 12.8028C15.3333 11.9487 15.3333 10.1667 15.3333 10.1667C15.3333 10.1667 15.3333 8.3846 15.1104 7.53051Z" fill="#8B8B9A"/>
<path fill-rule="evenodd" clip-rule="evenodd" d="M8.99967 12V8.66666L11.6663 10.3334L8.99967 12Z" fill="#8B8B9A"/>
</svg>
