<svg width="150" height="48" viewBox="0 0 150 48" fill="none" xmlns="http://www.w3.org/2000/svg">
<rect width="150" height="48" rx="8" fill="#8B8B9A"/>
<path d="M25.2939 38C21.302 37.9768 18 29.7739 18 25.5963C18 18.7723 23.0854 17.2783 25.0453 17.2783C25.9285 17.2783 26.8717 17.6275 27.7035 17.9365C28.2852 18.152 28.8868 18.3745 29.2214 18.3745C29.4217 18.3745 29.8936 18.1852 30.3103 18.0192C31.199 17.663 32.3047 17.2204 33.5924 17.2204C33.5947 17.2204 33.5978 17.2204 33.6 17.2204C34.5615 17.2204 37.4769 17.4328 39.2295 20.0824L39.6401 20.7035L39.0492 21.1523C38.2051 21.7935 36.665 22.963 36.665 25.2797C36.665 28.0235 38.4092 29.0787 39.2472 29.5862C39.6171 29.8102 40 30.0412 40 30.5464C40 30.8763 37.3848 37.9591 33.587 37.9591C32.6577 37.9591 32.0008 37.6779 31.4214 37.4299C30.8352 37.1789 30.3294 36.9626 29.4938 36.9626C29.0702 36.9626 28.5345 37.1642 27.9674 37.3782C27.1925 37.6694 26.3153 38 25.32 38H25.2939Z" fill="#1E1E2E"/>
<path d="M33.9949 11C34.0938 14.5899 31.5434 17.0805 28.9959 16.9243C28.5761 14.0594 31.5431 11 33.9949 11Z" fill="#1E1E2E"/>
<path d="M48.43 14.51C48.43 13.83 48.5833 13.22 48.89 12.68C49.1967 12.1333 49.6133 11.7067 50.14 11.4C50.6733 11.0933 51.2633 10.94 51.91 10.94C52.67 10.94 53.3333 11.1233 53.9 11.49C54.4667 11.8567 54.88 12.3767 55.14 13.05H54.05C53.8567 12.63 53.5767 12.3067 53.21 12.08C52.85 11.8533 52.4167 11.74 51.91 11.74C51.4233 11.74 50.9867 11.8533 50.6 12.08C50.2133 12.3067 49.91 12.63 49.69 13.05C49.47 13.4633 49.36 13.95 49.36 14.51C49.36 15.0633 49.47 15.55 49.69 15.97C49.91 16.3833 50.2133 16.7033 50.6 16.93C50.9867 17.1567 51.4233 17.27 51.91 17.27C52.4167 17.27 52.85 17.16 53.21 16.94C53.5767 16.7133 53.8567 16.39 54.05 15.97H55.14C54.88 16.6367 54.4667 17.1533 53.9 17.52C53.3333 17.88 52.67 18.06 51.91 18.06C51.2633 18.06 50.6733 17.91 50.14 17.61C49.6133 17.3033 49.1967 16.88 48.89 16.34C48.5833 15.8 48.43 15.19 48.43 14.51ZM58.8846 18.09C58.3713 18.09 57.9046 17.9733 57.4846 17.74C57.0713 17.5067 56.7446 17.1767 56.5046 16.75C56.2713 16.3167 56.1546 15.8167 56.1546 15.25C56.1546 14.69 56.2746 14.1967 56.5146 13.77C56.7613 13.3367 57.0946 13.0067 57.5146 12.78C57.9346 12.5467 58.4046 12.43 58.9246 12.43C59.4446 12.43 59.9146 12.5467 60.3346 12.78C60.7546 13.0067 61.0846 13.3333 61.3246 13.76C61.5713 14.1867 61.6946 14.6833 61.6946 15.25C61.6946 15.8167 61.5679 16.3167 61.3146 16.75C61.0679 17.1767 60.7313 17.5067 60.3046 17.74C59.8779 17.9733 59.4046 18.09 58.8846 18.09ZM58.8846 17.29C59.2113 17.29 59.5179 17.2133 59.8046 17.06C60.0913 16.9067 60.3213 16.6767 60.4946 16.37C60.6746 16.0633 60.7646 15.69 60.7646 15.25C60.7646 14.81 60.6779 14.4367 60.5046 14.13C60.3313 13.8233 60.1046 13.5967 59.8246 13.45C59.5446 13.2967 59.2413 13.22 58.9146 13.22C58.5813 13.22 58.2746 13.2967 57.9946 13.45C57.7213 13.5967 57.5013 13.8233 57.3346 14.13C57.1679 14.4367 57.0846 14.81 57.0846 15.25C57.0846 15.6967 57.1646 16.0733 57.3246 16.38C57.4913 16.6867 57.7113 16.9167 57.9846 17.07C58.2579 17.2167 58.5579 17.29 58.8846 17.29ZM69.4811 12.42C69.9078 12.42 70.2878 12.51 70.6211 12.69C70.9544 12.8633 71.2178 13.1267 71.4111 13.48C71.6044 13.8333 71.7011 14.2633 71.7011 14.77V18H70.8011V14.9C70.8011 14.3533 70.6644 13.9367 70.3911 13.65C70.1244 13.3567 69.7611 13.21 69.3011 13.21C68.8278 13.21 68.4511 13.3633 68.1711 13.67C67.8911 13.97 67.7511 14.4067 67.7511 14.98V18H66.8511V14.9C66.8511 14.3533 66.7144 13.9367 66.4411 13.65C66.1744 13.3567 65.8111 13.21 65.3511 13.21C64.8778 13.21 64.5011 13.3633 64.2211 13.67C63.9411 13.97 63.8011 14.4067 63.8011 14.98V18H62.8911V12.52H63.8011V13.31C63.9811 13.0233 64.2211 12.8033 64.5211 12.65C64.8278 12.4967 65.1644 12.42 65.5311 12.42C65.9911 12.42 66.3978 12.5233 66.7511 12.73C67.1044 12.9367 67.3678 13.24 67.5411 13.64C67.6944 13.2533 67.9478 12.9533 68.3011 12.74C68.6544 12.5267 69.0478 12.42 69.4811 12.42ZM73.6638 11.63C73.4905 11.63 73.3438 11.57 73.2238 11.45C73.1038 11.33 73.0438 11.1833 73.0438 11.01C73.0438 10.8367 73.1038 10.69 73.2238 10.57C73.3438 10.45 73.4905 10.39 73.6638 10.39C73.8305 10.39 73.9705 10.45 74.0838 10.57C74.2038 10.69 74.2638 10.8367 74.2638 11.01C74.2638 11.1833 74.2038 11.33 74.0838 11.45C73.9705 11.57 73.8305 11.63 73.6638 11.63ZM74.1038 12.52V18H73.1938V12.52H74.1038ZM78.3248 12.42C78.9914 12.42 79.5314 12.6233 79.9448 13.03C80.3581 13.43 80.5648 14.01 80.5648 14.77V18H79.6648V14.9C79.6648 14.3533 79.5281 13.9367 79.2548 13.65C78.9814 13.3567 78.6081 13.21 78.1348 13.21C77.6548 13.21 77.2714 13.36 76.9848 13.66C76.7048 13.96 76.5648 14.3967 76.5648 14.97V18H75.6548V12.52H76.5648V13.3C76.7448 13.02 76.9881 12.8033 77.2948 12.65C77.6081 12.4967 77.9514 12.42 78.3248 12.42ZM84.3113 12.43C84.7846 12.43 85.1979 12.5333 85.5513 12.74C85.9113 12.9467 86.1779 13.2067 86.3513 13.52V12.52H87.2713V18.12C87.2713 18.62 87.1646 19.0633 86.9513 19.45C86.7379 19.8433 86.4313 20.15 86.0313 20.37C85.6379 20.59 85.1779 20.7 84.6513 20.7C83.9313 20.7 83.3313 20.53 82.8513 20.19C82.3713 19.85 82.0879 19.3867 82.0013 18.8H82.9013C83.0013 19.1333 83.2079 19.4 83.5213 19.6C83.8346 19.8067 84.2113 19.91 84.6513 19.91C85.1513 19.91 85.5579 19.7533 85.8713 19.44C86.1913 19.1267 86.3513 18.6867 86.3513 18.12V16.97C86.1713 17.29 85.9046 17.5567 85.5513 17.77C85.1979 17.9833 84.7846 18.09 84.3113 18.09C83.8246 18.09 83.3813 17.97 82.9813 17.73C82.5879 17.49 82.2779 17.1533 82.0513 16.72C81.8246 16.2867 81.7113 15.7933 81.7113 15.24C81.7113 14.68 81.8246 14.19 82.0513 13.77C82.2779 13.3433 82.5879 13.0133 82.9813 12.78C83.3813 12.5467 83.8246 12.43 84.3113 12.43ZM86.3513 15.25C86.3513 14.8367 86.2679 14.4767 86.1013 14.17C85.9346 13.8633 85.7079 13.63 85.4213 13.47C85.1413 13.3033 84.8313 13.22 84.4913 13.22C84.1513 13.22 83.8413 13.3 83.5613 13.46C83.2813 13.62 83.0579 13.8533 82.8913 14.16C82.7246 14.4667 82.6413 14.8267 82.6413 15.24C82.6413 15.66 82.7246 16.0267 82.8913 16.34C83.0579 16.6467 83.2813 16.8833 83.5613 17.05C83.8413 17.21 84.1513 17.29 84.4913 17.29C84.8313 17.29 85.1413 17.21 85.4213 17.05C85.7079 16.8833 85.9346 16.6467 86.1013 16.34C86.2679 16.0267 86.3513 15.6633 86.3513 15.25ZM93.4151 18.09C92.9951 18.09 92.6184 18.02 92.2851 17.88C91.9517 17.7333 91.6884 17.5333 91.4951 17.28C91.3017 17.02 91.1951 16.7233 91.1751 16.39H92.1151C92.1417 16.6633 92.2684 16.8867 92.4951 17.06C92.7284 17.2333 93.0317 17.32 93.4051 17.32C93.7517 17.32 94.0251 17.2433 94.2251 17.09C94.4251 16.9367 94.5251 16.7433 94.5251 16.51C94.5251 16.27 94.4184 16.0933 94.2051 15.98C93.9917 15.86 93.6617 15.7433 93.2151 15.63C92.8084 15.5233 92.4751 15.4167 92.2151 15.31C91.9617 15.1967 91.7417 15.0333 91.5551 14.82C91.3751 14.6 91.2851 14.3133 91.2851 13.96C91.2851 13.68 91.3684 13.4233 91.5351 13.19C91.7017 12.9567 91.9384 12.7733 92.2451 12.64C92.5517 12.5 92.9017 12.43 93.2951 12.43C93.9017 12.43 94.3917 12.5833 94.7651 12.89C95.1384 13.1967 95.3384 13.6167 95.3651 14.15H94.4551C94.4351 13.8633 94.3184 13.6333 94.1051 13.46C93.8984 13.2867 93.6184 13.2 93.2651 13.2C92.9384 13.2 92.6784 13.27 92.4851 13.41C92.2917 13.55 92.1951 13.7333 92.1951 13.96C92.1951 14.14 92.2517 14.29 92.3651 14.41C92.4851 14.5233 92.6317 14.6167 92.8051 14.69C92.9851 14.7567 93.2317 14.8333 93.5451 14.92C93.9384 15.0267 94.2584 15.1333 94.5051 15.24C94.7517 15.34 94.9617 15.4933 95.1351 15.7C95.3151 15.9067 95.4084 16.1767 95.4151 16.51C95.4151 16.81 95.3317 17.08 95.1651 17.32C94.9984 17.56 94.7617 17.75 94.4551 17.89C94.1551 18.0233 93.8084 18.09 93.4151 18.09ZM99.0897 18.09C98.5764 18.09 98.1097 17.9733 97.6897 17.74C97.2764 17.5067 96.9497 17.1767 96.7097 16.75C96.4764 16.3167 96.3597 15.8167 96.3597 15.25C96.3597 14.69 96.4797 14.1967 96.7197 13.77C96.9664 13.3367 97.2997 13.0067 97.7197 12.78C98.1397 12.5467 98.6097 12.43 99.1297 12.43C99.6497 12.43 100.12 12.5467 100.54 12.78C100.96 13.0067 101.29 13.3333 101.53 13.76C101.776 14.1867 101.9 14.6833 101.9 15.25C101.9 15.8167 101.773 16.3167 101.52 16.75C101.273 17.1767 100.936 17.5067 100.51 17.74C100.083 17.9733 99.6097 18.09 99.0897 18.09ZM99.0897 17.29C99.4164 17.29 99.723 17.2133 100.01 17.06C100.296 16.9067 100.526 16.6767 100.7 16.37C100.88 16.0633 100.97 15.69 100.97 15.25C100.97 14.81 100.883 14.4367 100.71 14.13C100.536 13.8233 100.31 13.5967 100.03 13.45C99.7497 13.2967 99.4464 13.22 99.1197 13.22C98.7864 13.22 98.4797 13.2967 98.1997 13.45C97.9264 13.5967 97.7064 13.8233 97.5397 14.13C97.373 14.4367 97.2897 14.81 97.2897 15.25C97.2897 15.6967 97.3697 16.0733 97.5297 16.38C97.6964 16.6867 97.9164 16.9167 98.1897 17.07C98.463 17.2167 98.763 17.29 99.0897 17.29ZM105.486 18.09C104.973 18.09 104.506 17.9733 104.086 17.74C103.673 17.5067 103.346 17.1767 103.106 16.75C102.873 16.3167 102.756 15.8167 102.756 15.25C102.756 14.69 102.876 14.1967 103.116 13.77C103.363 13.3367 103.696 13.0067 104.116 12.78C104.536 12.5467 105.006 12.43 105.526 12.43C106.046 12.43 106.516 12.5467 106.936 12.78C107.356 13.0067 107.686 13.3333 107.926 13.76C108.173 14.1867 108.296 14.6833 108.296 15.25C108.296 15.8167 108.17 16.3167 107.916 16.75C107.67 17.1767 107.333 17.5067 106.906 17.74C106.48 17.9733 106.006 18.09 105.486 18.09ZM105.486 17.29C105.813 17.29 106.12 17.2133 106.406 17.06C106.693 16.9067 106.923 16.6767 107.096 16.37C107.276 16.0633 107.366 15.69 107.366 15.25C107.366 14.81 107.28 14.4367 107.106 14.13C106.933 13.8233 106.706 13.5967 106.426 13.45C106.146 13.2967 105.843 13.22 105.516 13.22C105.183 13.22 104.876 13.2967 104.596 13.45C104.323 13.5967 104.103 13.8233 103.936 14.13C103.77 14.4367 103.686 14.81 103.686 15.25C103.686 15.6967 103.766 16.0733 103.926 16.38C104.093 16.6867 104.313 16.9167 104.586 17.07C104.86 17.2167 105.16 17.29 105.486 17.29ZM112.163 12.42C112.829 12.42 113.369 12.6233 113.783 13.03C114.196 13.43 114.403 14.01 114.403 14.77V18H113.503V14.9C113.503 14.3533 113.366 13.9367 113.093 13.65C112.819 13.3567 112.446 13.21 111.973 13.21C111.493 13.21 111.109 13.36 110.823 13.66C110.543 13.96 110.403 14.3967 110.403 14.97V18H109.493V12.52H110.403V13.3C110.583 13.02 110.826 12.8033 111.133 12.65C111.446 12.4967 111.789 12.42 112.163 12.42ZM120.945 18.09C120.432 18.09 119.965 17.9733 119.545 17.74C119.132 17.5067 118.805 17.1767 118.565 16.75C118.332 16.3167 118.215 15.8167 118.215 15.25C118.215 14.69 118.335 14.1967 118.575 13.77C118.822 13.3367 119.155 13.0067 119.575 12.78C119.995 12.5467 120.465 12.43 120.985 12.43C121.505 12.43 121.975 12.5467 122.395 12.78C122.815 13.0067 123.145 13.3333 123.385 13.76C123.632 14.1867 123.755 14.6833 123.755 15.25C123.755 15.8167 123.628 16.3167 123.375 16.75C123.128 17.1767 122.792 17.5067 122.365 17.74C121.938 17.9733 121.465 18.09 120.945 18.09ZM120.945 17.29C121.272 17.29 121.578 17.2133 121.865 17.06C122.152 16.9067 122.382 16.6767 122.555 16.37C122.735 16.0633 122.825 15.69 122.825 15.25C122.825 14.81 122.738 14.4367 122.565 14.13C122.392 13.8233 122.165 13.5967 121.885 13.45C121.605 13.2967 121.302 13.22 120.975 13.22C120.642 13.22 120.335 13.2967 120.055 13.45C119.782 13.5967 119.562 13.8233 119.395 14.13C119.228 14.4367 119.145 14.81 119.145 15.25C119.145 15.6967 119.225 16.0733 119.385 16.38C119.552 16.6867 119.772 16.9167 120.045 17.07C120.318 17.2167 120.618 17.29 120.945 17.29ZM127.622 12.42C128.288 12.42 128.828 12.6233 129.242 13.03C129.655 13.43 129.862 14.01 129.862 14.77V18H128.962V14.9C128.962 14.3533 128.825 13.9367 128.552 13.65C128.278 13.3567 127.905 13.21 127.432 13.21C126.952 13.21 126.568 13.36 126.282 13.66C126.002 13.96 125.862 14.3967 125.862 14.97V18H124.952V12.52H125.862V13.3C126.042 13.02 126.285 12.8033 126.592 12.65C126.905 12.4967 127.248 12.42 127.622 12.42Z" fill="#1E1E2E"/>
<path d="M54.958 34.138H51.066L50.422 36H48.364L51.878 26.214H54.16L57.674 36H55.602L54.958 34.138ZM54.426 32.57L53.012 28.482L51.598 32.57H54.426ZM60.9475 29.364C61.1995 29.0093 61.5448 28.7153 61.9835 28.482C62.4315 28.2393 62.9402 28.118 63.5095 28.118C64.1722 28.118 64.7695 28.2813 65.3015 28.608C65.8428 28.9347 66.2675 29.4013 66.5755 30.008C66.8928 30.6053 67.0515 31.3007 67.0515 32.094C67.0515 32.8873 66.8928 33.592 66.5755 34.208C66.2675 34.8147 65.8428 35.286 65.3015 35.622C64.7695 35.958 64.1722 36.126 63.5095 36.126C62.9402 36.126 62.4362 36.0093 61.9975 35.776C61.5682 35.5427 61.2182 35.2487 60.9475 34.894V39.696H58.9875V28.244H60.9475V29.364ZM65.0495 32.094C65.0495 31.6273 64.9515 31.226 64.7555 30.89C64.5688 30.5447 64.3168 30.2833 63.9995 30.106C63.6915 29.9287 63.3555 29.84 62.9915 29.84C62.6368 29.84 62.3008 29.9333 61.9835 30.12C61.6755 30.2973 61.4235 30.5587 61.2275 30.904C61.0408 31.2493 60.9475 31.6553 60.9475 32.122C60.9475 32.5887 61.0408 32.9947 61.2275 33.34C61.4235 33.6853 61.6755 33.9513 61.9835 34.138C62.3008 34.3153 62.6368 34.404 62.9915 34.404C63.3555 34.404 63.6915 34.3107 63.9995 34.124C64.3168 33.9373 64.5688 33.6713 64.7555 33.326C64.9515 32.9807 65.0495 32.57 65.0495 32.094ZM70.4358 29.364C70.6878 29.0093 71.0331 28.7153 71.4718 28.482C71.9198 28.2393 72.4284 28.118 72.9978 28.118C73.6604 28.118 74.2578 28.2813 74.7898 28.608C75.3311 28.9347 75.7558 29.4013 76.0638 30.008C76.3811 30.6053 76.5398 31.3007 76.5398 32.094C76.5398 32.8873 76.3811 33.592 76.0638 34.208C75.7558 34.8147 75.3311 35.286 74.7898 35.622C74.2578 35.958 73.6604 36.126 72.9978 36.126C72.4284 36.126 71.9244 36.0093 71.4858 35.776C71.0564 35.5427 70.7064 35.2487 70.4358 34.894V39.696H68.4758V28.244H70.4358V29.364ZM74.5378 32.094C74.5378 31.6273 74.4398 31.226 74.2438 30.89C74.0571 30.5447 73.8051 30.2833 73.4878 30.106C73.1798 29.9287 72.8438 29.84 72.4798 29.84C72.1251 29.84 71.7891 29.9333 71.4718 30.12C71.1638 30.2973 70.9118 30.5587 70.7158 30.904C70.5291 31.2493 70.4358 31.6553 70.4358 32.122C70.4358 32.5887 70.5291 32.9947 70.7158 33.34C70.9118 33.6853 71.1638 33.9513 71.4718 34.138C71.7891 34.3153 72.1251 34.404 72.4798 34.404C72.8438 34.404 73.1798 34.3107 73.4878 34.124C73.8051 33.9373 74.0571 33.6713 74.2438 33.326C74.4398 32.9807 74.5378 32.57 74.5378 32.094ZM84.674 36.098C83.9927 36.098 83.3767 35.9813 82.826 35.748C82.2847 35.5147 81.8553 35.1787 81.538 34.74C81.2207 34.3013 81.0573 33.7833 81.048 33.186H83.148C83.176 33.5873 83.316 33.9047 83.568 34.138C83.8293 34.3713 84.184 34.488 84.632 34.488C85.0893 34.488 85.4487 34.3807 85.71 34.166C85.9713 33.942 86.102 33.6527 86.102 33.298C86.102 33.0087 86.0133 32.7707 85.836 32.584C85.6587 32.3973 85.4347 32.2527 85.164 32.15C84.9027 32.038 84.5387 31.9167 84.072 31.786C83.4373 31.5993 82.9193 31.4173 82.518 31.24C82.126 31.0533 81.7853 30.778 81.496 30.414C81.216 30.0407 81.076 29.546 81.076 28.93C81.076 28.3513 81.2207 27.8473 81.51 27.418C81.7993 26.9887 82.2053 26.662 82.728 26.438C83.2507 26.2047 83.848 26.088 84.52 26.088C85.528 26.088 86.3447 26.3353 86.97 26.83C87.6047 27.3153 87.9547 27.9967 88.02 28.874H85.864C85.8453 28.538 85.7007 28.2627 85.43 28.048C85.1687 27.824 84.8187 27.712 84.38 27.712C83.9973 27.712 83.6893 27.81 83.456 28.006C83.232 28.202 83.12 28.4867 83.12 28.86C83.12 29.1213 83.204 29.3407 83.372 29.518C83.5493 29.686 83.764 29.826 84.016 29.938C84.2773 30.0407 84.6413 30.162 85.108 30.302C85.7427 30.4887 86.2607 30.6753 86.662 30.862C87.0633 31.0487 87.4087 31.3287 87.698 31.702C87.9873 32.0753 88.132 32.5653 88.132 33.172C88.132 33.6947 87.9967 34.18 87.726 34.628C87.4553 35.076 87.0587 35.4353 86.536 35.706C86.0133 35.9673 85.3927 36.098 84.674 36.098ZM92.1132 29.854V33.606C92.1132 33.8673 92.1739 34.0587 92.2952 34.18C92.4259 34.292 92.6406 34.348 92.9392 34.348H93.8492V36H92.6172C90.9652 36 90.1392 35.1973 90.1392 33.592V29.854H89.2152V28.244H90.1392V26.326H92.1132V28.244H93.8492V29.854H92.1132ZM98.703 36.126C97.9563 36.126 97.2843 35.9627 96.687 35.636C96.0896 35.3 95.6183 34.8287 95.273 34.222C94.937 33.6153 94.769 32.9153 94.769 32.122C94.769 31.3287 94.9416 30.6287 95.287 30.022C95.6416 29.4153 96.1223 28.9487 96.729 28.622C97.3356 28.286 98.0123 28.118 98.759 28.118C99.5056 28.118 100.182 28.286 100.789 28.622C101.396 28.9487 101.872 29.4153 102.217 30.022C102.572 30.6287 102.749 31.3287 102.749 32.122C102.749 32.9153 102.567 33.6153 102.203 34.222C101.848 34.8287 101.363 35.3 100.747 35.636C100.14 35.9627 99.459 36.126 98.703 36.126ZM98.703 34.418C99.0576 34.418 99.389 34.334 99.697 34.166C100.014 33.9887 100.266 33.7273 100.453 33.382C100.64 33.0367 100.733 32.6167 100.733 32.122C100.733 31.3847 100.537 30.82 100.145 30.428C99.7623 30.0267 99.291 29.826 98.731 29.826C98.171 29.826 97.6996 30.0267 97.317 30.428C96.9436 30.82 96.757 31.3847 96.757 32.122C96.757 32.8593 96.939 33.4287 97.303 33.83C97.6763 34.222 98.143 34.418 98.703 34.418ZM106.147 29.448C106.399 29.0373 106.725 28.7153 107.127 28.482C107.537 28.2487 108.004 28.132 108.527 28.132V30.19H108.009C107.393 30.19 106.926 30.3347 106.609 30.624C106.301 30.9133 106.147 31.4173 106.147 32.136V36H104.187V28.244H106.147V29.448ZM117.057 31.954C117.057 32.234 117.038 32.486 117.001 32.71H111.331C111.378 33.27 111.574 33.7087 111.919 34.026C112.264 34.3433 112.689 34.502 113.193 34.502C113.921 34.502 114.439 34.1893 114.747 33.564H116.861C116.637 34.3107 116.208 34.9267 115.573 35.412C114.938 35.888 114.159 36.126 113.235 36.126C112.488 36.126 111.816 35.9627 111.219 35.636C110.631 35.3 110.169 34.8287 109.833 34.222C109.506 33.6153 109.343 32.9153 109.343 32.122C109.343 31.3193 109.506 30.6147 109.833 30.008C110.16 29.4013 110.617 28.9347 111.205 28.608C111.793 28.2813 112.47 28.118 113.235 28.118C113.972 28.118 114.63 28.2767 115.209 28.594C115.797 28.9113 116.25 29.364 116.567 29.952C116.894 30.5307 117.057 31.198 117.057 31.954ZM115.027 31.394C115.018 30.89 114.836 30.4887 114.481 30.19C114.126 29.882 113.692 29.728 113.179 29.728C112.694 29.728 112.283 29.8773 111.947 30.176C111.62 30.4653 111.42 30.8713 111.345 31.394H115.027Z" fill="#1E1E2E"/>
</svg>
