<svg width="150" height="48" viewBox="0 0 150 48" fill="none" xmlns="http://www.w3.org/2000/svg">
<rect width="150" height="48" rx="8" fill="#8B8B9A"/>
<path d="M30.5714 25L18.8678 36.8696C18.3197 36.4751 17.9943 35.8189 18.0001 35.1198V14.8802C17.9943 14.1811 18.3197 13.5249 18.8678 13.1304L30.5714 25Z" fill="#1E1E2E"/>
<path d="M36.2857 20.2349L31.8421 24.4348L19.1429 12.4109C19.1907 12.3745 19.2405 12.3406 19.2921 12.3093C19.9633 11.9093 20.8016 11.8964 21.4852 12.2755L36.2857 20.2349Z" fill="#1E1E2E"/>
<path d="M41.9999 25C42.0076 25.7532 41.5966 26.4488 40.9318 26.8081L36.9906 28.9565L32.8571 25L36.9906 21.0435L40.9318 23.1919C41.5966 23.5512 42.0076 24.2468 41.9999 25Z" fill="#1E1E2E"/>
<path d="M36.2857 29.7666L21.4852 37.7288C20.8001 38.1021 19.9649 38.0892 19.2921 37.695C19.2405 37.6637 19.1907 37.6298 19.1429 37.5933L31.8422 25.5652L36.2857 29.7666Z" fill="#1E1E2E"/>
<path d="M50.43 14.51C50.43 13.83 50.5833 13.22 50.89 12.68C51.1967 12.1333 51.6133 11.7067 52.14 11.4C52.6733 11.0933 53.2633 10.94 53.91 10.94C54.67 10.94 55.3333 11.1233 55.9 11.49C56.4667 11.8567 56.88 12.3767 57.14 13.05H56.05C55.8567 12.63 55.5767 12.3067 55.21 12.08C54.85 11.8533 54.4167 11.74 53.91 11.74C53.4233 11.74 52.9867 11.8533 52.6 12.08C52.2133 12.3067 51.91 12.63 51.69 13.05C51.47 13.4633 51.36 13.95 51.36 14.51C51.36 15.0633 51.47 15.55 51.69 15.97C51.91 16.3833 52.2133 16.7033 52.6 16.93C52.9867 17.1567 53.4233 17.27 53.91 17.27C54.4167 17.27 54.85 17.16 55.21 16.94C55.5767 16.7133 55.8567 16.39 56.05 15.97H57.14C56.88 16.6367 56.4667 17.1533 55.9 17.52C55.3333 17.88 54.67 18.06 53.91 18.06C53.2633 18.06 52.6733 17.91 52.14 17.61C51.6133 17.3033 51.1967 16.88 50.89 16.34C50.5833 15.8 50.43 15.19 50.43 14.51ZM60.8846 18.09C60.3713 18.09 59.9046 17.9733 59.4846 17.74C59.0713 17.5067 58.7446 17.1767 58.5046 16.75C58.2713 16.3167 58.1546 15.8167 58.1546 15.25C58.1546 14.69 58.2746 14.1967 58.5146 13.77C58.7613 13.3367 59.0946 13.0067 59.5146 12.78C59.9346 12.5467 60.4046 12.43 60.9246 12.43C61.4446 12.43 61.9146 12.5467 62.3346 12.78C62.7546 13.0067 63.0846 13.3333 63.3246 13.76C63.5713 14.1867 63.6946 14.6833 63.6946 15.25C63.6946 15.8167 63.5679 16.3167 63.3146 16.75C63.0679 17.1767 62.7313 17.5067 62.3046 17.74C61.8779 17.9733 61.4046 18.09 60.8846 18.09ZM60.8846 17.29C61.2113 17.29 61.5179 17.2133 61.8046 17.06C62.0913 16.9067 62.3213 16.6767 62.4946 16.37C62.6746 16.0633 62.7646 15.69 62.7646 15.25C62.7646 14.81 62.6779 14.4367 62.5046 14.13C62.3313 13.8233 62.1046 13.5967 61.8246 13.45C61.5446 13.2967 61.2413 13.22 60.9146 13.22C60.5813 13.22 60.2746 13.2967 59.9946 13.45C59.7213 13.5967 59.5013 13.8233 59.3346 14.13C59.1679 14.4367 59.0846 14.81 59.0846 15.25C59.0846 15.6967 59.1646 16.0733 59.3246 16.38C59.4913 16.6867 59.7113 16.9167 59.9846 17.07C60.2579 17.2167 60.5579 17.29 60.8846 17.29ZM71.4811 12.42C71.9078 12.42 72.2878 12.51 72.6211 12.69C72.9544 12.8633 73.2178 13.1267 73.4111 13.48C73.6044 13.8333 73.7011 14.2633 73.7011 14.77V18H72.8011V14.9C72.8011 14.3533 72.6644 13.9367 72.3911 13.65C72.1244 13.3567 71.7611 13.21 71.3011 13.21C70.8278 13.21 70.4511 13.3633 70.1711 13.67C69.8911 13.97 69.7511 14.4067 69.7511 14.98V18H68.8511V14.9C68.8511 14.3533 68.7144 13.9367 68.4411 13.65C68.1744 13.3567 67.8111 13.21 67.3511 13.21C66.8778 13.21 66.5011 13.3633 66.2211 13.67C65.9411 13.97 65.8011 14.4067 65.8011 14.98V18H64.8911V12.52H65.8011V13.31C65.9811 13.0233 66.2211 12.8033 66.5211 12.65C66.8278 12.4967 67.1644 12.42 67.5311 12.42C67.9911 12.42 68.3978 12.5233 68.7511 12.73C69.1044 12.9367 69.3678 13.24 69.5411 13.64C69.6944 13.2533 69.9478 12.9533 70.3011 12.74C70.6544 12.5267 71.0478 12.42 71.4811 12.42ZM75.6638 11.63C75.4905 11.63 75.3438 11.57 75.2238 11.45C75.1038 11.33 75.0438 11.1833 75.0438 11.01C75.0438 10.8367 75.1038 10.69 75.2238 10.57C75.3438 10.45 75.4905 10.39 75.6638 10.39C75.8305 10.39 75.9705 10.45 76.0838 10.57C76.2038 10.69 76.2638 10.8367 76.2638 11.01C76.2638 11.1833 76.2038 11.33 76.0838 11.45C75.9705 11.57 75.8305 11.63 75.6638 11.63ZM76.1038 12.52V18H75.1938V12.52H76.1038ZM80.3248 12.42C80.9914 12.42 81.5314 12.6233 81.9448 13.03C82.3581 13.43 82.5648 14.01 82.5648 14.77V18H81.6648V14.9C81.6648 14.3533 81.5281 13.9367 81.2548 13.65C80.9814 13.3567 80.6081 13.21 80.1348 13.21C79.6548 13.21 79.2714 13.36 78.9848 13.66C78.7048 13.96 78.5648 14.3967 78.5648 14.97V18H77.6548V12.52H78.5648V13.3C78.7448 13.02 78.9881 12.8033 79.2948 12.65C79.6081 12.4967 79.9514 12.42 80.3248 12.42ZM86.3113 12.43C86.7846 12.43 87.1979 12.5333 87.5513 12.74C87.9113 12.9467 88.1779 13.2067 88.3513 13.52V12.52H89.2713V18.12C89.2713 18.62 89.1646 19.0633 88.9513 19.45C88.7379 19.8433 88.4313 20.15 88.0313 20.37C87.6379 20.59 87.1779 20.7 86.6513 20.7C85.9313 20.7 85.3313 20.53 84.8513 20.19C84.3713 19.85 84.0879 19.3867 84.0013 18.8H84.9013C85.0013 19.1333 85.2079 19.4 85.5213 19.6C85.8346 19.8067 86.2113 19.91 86.6513 19.91C87.1513 19.91 87.5579 19.7533 87.8713 19.44C88.1913 19.1267 88.3513 18.6867 88.3513 18.12V16.97C88.1713 17.29 87.9046 17.5567 87.5513 17.77C87.1979 17.9833 86.7846 18.09 86.3113 18.09C85.8246 18.09 85.3813 17.97 84.9813 17.73C84.5879 17.49 84.2779 17.1533 84.0513 16.72C83.8246 16.2867 83.7113 15.7933 83.7113 15.24C83.7113 14.68 83.8246 14.19 84.0513 13.77C84.2779 13.3433 84.5879 13.0133 84.9813 12.78C85.3813 12.5467 85.8246 12.43 86.3113 12.43ZM88.3513 15.25C88.3513 14.8367 88.2679 14.4767 88.1013 14.17C87.9346 13.8633 87.7079 13.63 87.4213 13.47C87.1413 13.3033 86.8313 13.22 86.4913 13.22C86.1513 13.22 85.8413 13.3 85.5613 13.46C85.2813 13.62 85.0579 13.8533 84.8913 14.16C84.7246 14.4667 84.6413 14.8267 84.6413 15.24C84.6413 15.66 84.7246 16.0267 84.8913 16.34C85.0579 16.6467 85.2813 16.8833 85.5613 17.05C85.8413 17.21 86.1513 17.29 86.4913 17.29C86.8313 17.29 87.1413 17.21 87.4213 17.05C87.7079 16.8833 87.9346 16.6467 88.1013 16.34C88.2679 16.0267 88.3513 15.6633 88.3513 15.25ZM95.4151 18.09C94.9951 18.09 94.6184 18.02 94.2851 17.88C93.9517 17.7333 93.6884 17.5333 93.4951 17.28C93.3017 17.02 93.1951 16.7233 93.1751 16.39H94.1151C94.1417 16.6633 94.2684 16.8867 94.4951 17.06C94.7284 17.2333 95.0317 17.32 95.4051 17.32C95.7517 17.32 96.0251 17.2433 96.2251 17.09C96.4251 16.9367 96.5251 16.7433 96.5251 16.51C96.5251 16.27 96.4184 16.0933 96.2051 15.98C95.9917 15.86 95.6617 15.7433 95.2151 15.63C94.8084 15.5233 94.4751 15.4167 94.2151 15.31C93.9617 15.1967 93.7417 15.0333 93.5551 14.82C93.3751 14.6 93.2851 14.3133 93.2851 13.96C93.2851 13.68 93.3684 13.4233 93.5351 13.19C93.7017 12.9567 93.9384 12.7733 94.2451 12.64C94.5517 12.5 94.9017 12.43 95.2951 12.43C95.9017 12.43 96.3917 12.5833 96.7651 12.89C97.1384 13.1967 97.3384 13.6167 97.3651 14.15H96.4551C96.4351 13.8633 96.3184 13.6333 96.1051 13.46C95.8984 13.2867 95.6184 13.2 95.2651 13.2C94.9384 13.2 94.6784 13.27 94.4851 13.41C94.2917 13.55 94.1951 13.7333 94.1951 13.96C94.1951 14.14 94.2517 14.29 94.3651 14.41C94.4851 14.5233 94.6317 14.6167 94.8051 14.69C94.9851 14.7567 95.2317 14.8333 95.5451 14.92C95.9384 15.0267 96.2584 15.1333 96.5051 15.24C96.7517 15.34 96.9617 15.4933 97.1351 15.7C97.3151 15.9067 97.4084 16.1767 97.4151 16.51C97.4151 16.81 97.3317 17.08 97.1651 17.32C96.9984 17.56 96.7617 17.75 96.4551 17.89C96.1551 18.0233 95.8084 18.09 95.4151 18.09ZM101.09 18.09C100.576 18.09 100.11 17.9733 99.6897 17.74C99.2764 17.5067 98.9497 17.1767 98.7097 16.75C98.4764 16.3167 98.3597 15.8167 98.3597 15.25C98.3597 14.69 98.4797 14.1967 98.7197 13.77C98.9664 13.3367 99.2997 13.0067 99.7197 12.78C100.14 12.5467 100.61 12.43 101.13 12.43C101.65 12.43 102.12 12.5467 102.54 12.78C102.96 13.0067 103.29 13.3333 103.53 13.76C103.776 14.1867 103.9 14.6833 103.9 15.25C103.9 15.8167 103.773 16.3167 103.52 16.75C103.273 17.1767 102.936 17.5067 102.51 17.74C102.083 17.9733 101.61 18.09 101.09 18.09ZM101.09 17.29C101.416 17.29 101.723 17.2133 102.01 17.06C102.296 16.9067 102.526 16.6767 102.7 16.37C102.88 16.0633 102.97 15.69 102.97 15.25C102.97 14.81 102.883 14.4367 102.71 14.13C102.536 13.8233 102.31 13.5967 102.03 13.45C101.75 13.2967 101.446 13.22 101.12 13.22C100.786 13.22 100.48 13.2967 100.2 13.45C99.9264 13.5967 99.7064 13.8233 99.5397 14.13C99.373 14.4367 99.2897 14.81 99.2897 15.25C99.2897 15.6967 99.3697 16.0733 99.5297 16.38C99.6964 16.6867 99.9164 16.9167 100.19 17.07C100.463 17.2167 100.763 17.29 101.09 17.29ZM107.486 18.09C106.973 18.09 106.506 17.9733 106.086 17.74C105.673 17.5067 105.346 17.1767 105.106 16.75C104.873 16.3167 104.756 15.8167 104.756 15.25C104.756 14.69 104.876 14.1967 105.116 13.77C105.363 13.3367 105.696 13.0067 106.116 12.78C106.536 12.5467 107.006 12.43 107.526 12.43C108.046 12.43 108.516 12.5467 108.936 12.78C109.356 13.0067 109.686 13.3333 109.926 13.76C110.173 14.1867 110.296 14.6833 110.296 15.25C110.296 15.8167 110.17 16.3167 109.916 16.75C109.67 17.1767 109.333 17.5067 108.906 17.74C108.48 17.9733 108.006 18.09 107.486 18.09ZM107.486 17.29C107.813 17.29 108.12 17.2133 108.406 17.06C108.693 16.9067 108.923 16.6767 109.096 16.37C109.276 16.0633 109.366 15.69 109.366 15.25C109.366 14.81 109.28 14.4367 109.106 14.13C108.933 13.8233 108.706 13.5967 108.426 13.45C108.146 13.2967 107.843 13.22 107.516 13.22C107.183 13.22 106.876 13.2967 106.596 13.45C106.323 13.5967 106.103 13.8233 105.936 14.13C105.77 14.4367 105.686 14.81 105.686 15.25C105.686 15.6967 105.766 16.0733 105.926 16.38C106.093 16.6867 106.313 16.9167 106.586 17.07C106.86 17.2167 107.16 17.29 107.486 17.29ZM114.163 12.42C114.829 12.42 115.369 12.6233 115.783 13.03C116.196 13.43 116.403 14.01 116.403 14.77V18H115.503V14.9C115.503 14.3533 115.366 13.9367 115.093 13.65C114.819 13.3567 114.446 13.21 113.973 13.21C113.493 13.21 113.109 13.36 112.823 13.66C112.543 13.96 112.403 14.3967 112.403 14.97V18H111.493V12.52H112.403V13.3C112.583 13.02 112.826 12.8033 113.133 12.65C113.446 12.4967 113.789 12.42 114.163 12.42ZM122.945 18.09C122.432 18.09 121.965 17.9733 121.545 17.74C121.132 17.5067 120.805 17.1767 120.565 16.75C120.332 16.3167 120.215 15.8167 120.215 15.25C120.215 14.69 120.335 14.1967 120.575 13.77C120.822 13.3367 121.155 13.0067 121.575 12.78C121.995 12.5467 122.465 12.43 122.985 12.43C123.505 12.43 123.975 12.5467 124.395 12.78C124.815 13.0067 125.145 13.3333 125.385 13.76C125.632 14.1867 125.755 14.6833 125.755 15.25C125.755 15.8167 125.628 16.3167 125.375 16.75C125.128 17.1767 124.792 17.5067 124.365 17.74C123.938 17.9733 123.465 18.09 122.945 18.09ZM122.945 17.29C123.272 17.29 123.578 17.2133 123.865 17.06C124.152 16.9067 124.382 16.6767 124.555 16.37C124.735 16.0633 124.825 15.69 124.825 15.25C124.825 14.81 124.738 14.4367 124.565 14.13C124.392 13.8233 124.165 13.5967 123.885 13.45C123.605 13.2967 123.302 13.22 122.975 13.22C122.642 13.22 122.335 13.2967 122.055 13.45C121.782 13.5967 121.562 13.8233 121.395 14.13C121.228 14.4367 121.145 14.81 121.145 15.25C121.145 15.6967 121.225 16.0733 121.385 16.38C121.552 16.6867 121.772 16.9167 122.045 17.07C122.318 17.2167 122.618 17.29 122.945 17.29ZM129.622 12.42C130.288 12.42 130.828 12.6233 131.242 13.03C131.655 13.43 131.862 14.01 131.862 14.77V18H130.962V14.9C130.962 14.3533 130.825 13.9367 130.552 13.65C130.278 13.3567 129.905 13.21 129.432 13.21C128.952 13.21 128.568 13.36 128.282 13.66C128.002 13.96 127.862 14.3967 127.862 14.97V18H126.952V12.52H127.862V13.3C128.042 13.02 128.285 12.8033 128.592 12.65C128.905 12.4967 129.248 12.42 129.622 12.42Z" fill="#1E1E2E"/>
<path d="M58.4318 29.252C58.4318 29.7747 58.3058 30.2647 58.0538 30.722C57.8112 31.1793 57.4238 31.548 56.8918 31.828C56.3692 32.108 55.7065 32.248 54.9038 32.248H53.2658V36H51.3058V26.228H54.9038C55.6598 26.228 56.3038 26.3587 56.8358 26.62C57.3678 26.8813 57.7645 27.2407 58.0258 27.698C58.2965 28.1553 58.4318 28.6733 58.4318 29.252ZM54.8198 30.666C55.3612 30.666 55.7625 30.5447 56.0238 30.302C56.2852 30.05 56.4158 29.7 56.4158 29.252C56.4158 28.3 55.8838 27.824 54.8198 27.824H53.2658V30.666H54.8198ZM61.7834 25.64V36H59.8234V25.64H61.7834ZM63.2159 32.094C63.2159 31.31 63.3699 30.6147 63.6779 30.008C63.9952 29.4013 64.4199 28.9347 64.9519 28.608C65.4932 28.2813 66.0952 28.118 66.7579 28.118C67.3366 28.118 67.8406 28.2347 68.2699 28.468C68.7086 28.7013 69.0586 28.9953 69.3199 29.35V28.244H71.2939V36H69.3199V34.866C69.0679 35.23 68.7179 35.5333 68.2699 35.776C67.8312 36.0093 67.3226 36.126 66.7439 36.126C66.0906 36.126 65.4932 35.958 64.9519 35.622C64.4199 35.286 63.9952 34.8147 63.6779 34.208C63.3699 33.592 63.2159 32.8873 63.2159 32.094ZM69.3199 32.122C69.3199 31.646 69.2266 31.24 69.0399 30.904C68.8532 30.5587 68.6012 30.2973 68.2839 30.12C67.9666 29.9333 67.6259 29.84 67.2619 29.84C66.8979 29.84 66.5619 29.9287 66.2539 30.106C65.9459 30.2833 65.6939 30.5447 65.4979 30.89C65.3112 31.226 65.2179 31.6273 65.2179 32.094C65.2179 32.5607 65.3112 32.9713 65.4979 33.326C65.6939 33.6713 65.9459 33.9373 66.2539 34.124C66.5712 34.3107 66.9072 34.404 67.2619 34.404C67.6259 34.404 67.9666 34.3153 68.2839 34.138C68.6012 33.9513 68.8532 33.69 69.0399 33.354C69.2266 33.0087 69.3199 32.598 69.3199 32.122ZM80.6282 28.244L75.8262 39.668H73.7402L75.4202 35.804L72.3122 28.244H74.5102L76.5122 33.662L78.5422 28.244H80.6282ZM88.3947 36.098C87.7134 36.098 87.0974 35.9813 86.5467 35.748C86.0054 35.5147 85.576 35.1787 85.2587 34.74C84.9414 34.3013 84.778 33.7833 84.7687 33.186H86.8687C86.8967 33.5873 87.0367 33.9047 87.2887 34.138C87.55 34.3713 87.9047 34.488 88.3527 34.488C88.81 34.488 89.1694 34.3807 89.4307 34.166C89.692 33.942 89.8227 33.6527 89.8227 33.298C89.8227 33.0087 89.734 32.7707 89.5567 32.584C89.3794 32.3973 89.1554 32.2527 88.8847 32.15C88.6234 32.038 88.2594 31.9167 87.7927 31.786C87.158 31.5993 86.64 31.4173 86.2387 31.24C85.8467 31.0533 85.506 30.778 85.2167 30.414C84.9367 30.0407 84.7967 29.546 84.7967 28.93C84.7967 28.3513 84.9414 27.8473 85.2307 27.418C85.52 26.9887 85.926 26.662 86.4487 26.438C86.9714 26.2047 87.5687 26.088 88.2407 26.088C89.2487 26.088 90.0654 26.3353 90.6907 26.83C91.3254 27.3153 91.6754 27.9967 91.7407 28.874H89.5847C89.566 28.538 89.4214 28.2627 89.1507 28.048C88.8894 27.824 88.5394 27.712 88.1007 27.712C87.718 27.712 87.41 27.81 87.1767 28.006C86.9527 28.202 86.8407 28.4867 86.8407 28.86C86.8407 29.1213 86.9247 29.3407 87.0927 29.518C87.27 29.686 87.4847 29.826 87.7367 29.938C87.998 30.0407 88.362 30.162 88.8287 30.302C89.4634 30.4887 89.9814 30.6753 90.3827 30.862C90.784 31.0487 91.1294 31.3287 91.4187 31.702C91.708 32.0753 91.8527 32.5653 91.8527 33.172C91.8527 33.6947 91.7174 34.18 91.4467 34.628C91.176 35.076 90.7794 35.4353 90.2567 35.706C89.734 35.9673 89.1134 36.098 88.3947 36.098ZM95.8339 29.854V33.606C95.8339 33.8673 95.8946 34.0587 96.0159 34.18C96.1466 34.292 96.3613 34.348 96.6599 34.348H97.5699V36H96.3379C94.6859 36 93.8599 35.1973 93.8599 33.592V29.854H92.9359V28.244H93.8599V26.326H95.8339V28.244H97.5699V29.854H95.8339ZM102.424 36.126C101.677 36.126 101.005 35.9627 100.408 35.636C99.8103 35.3 99.339 34.8287 98.9937 34.222C98.6577 33.6153 98.4897 32.9153 98.4897 32.122C98.4897 31.3287 98.6623 30.6287 99.0077 30.022C99.3623 29.4153 99.843 28.9487 100.45 28.622C101.056 28.286 101.733 28.118 102.48 28.118C103.226 28.118 103.903 28.286 104.51 28.622C105.116 28.9487 105.592 29.4153 105.938 30.022C106.292 30.6287 106.47 31.3287 106.47 32.122C106.47 32.9153 106.288 33.6153 105.924 34.222C105.569 34.8287 105.084 35.3 104.468 35.636C103.861 35.9627 103.18 36.126 102.424 36.126ZM102.424 34.418C102.778 34.418 103.11 34.334 103.418 34.166C103.735 33.9887 103.987 33.7273 104.174 33.382C104.36 33.0367 104.454 32.6167 104.454 32.122C104.454 31.3847 104.258 30.82 103.866 30.428C103.483 30.0267 103.012 29.826 102.452 29.826C101.892 29.826 101.42 30.0267 101.038 30.428C100.664 30.82 100.478 31.3847 100.478 32.122C100.478 32.8593 100.66 33.4287 101.024 33.83C101.397 34.222 101.864 34.418 102.424 34.418ZM109.867 29.448C110.119 29.0373 110.446 28.7153 110.847 28.482C111.258 28.2487 111.725 28.132 112.247 28.132V30.19H111.729C111.113 30.19 110.647 30.3347 110.329 30.624C110.021 30.9133 109.867 31.4173 109.867 32.136V36H107.907V28.244H109.867V29.448ZM120.778 31.954C120.778 32.234 120.759 32.486 120.722 32.71H115.052C115.098 33.27 115.294 33.7087 115.64 34.026C115.985 34.3433 116.41 34.502 116.914 34.502C117.642 34.502 118.16 34.1893 118.468 33.564H120.582C120.358 34.3107 119.928 34.9267 119.294 35.412C118.659 35.888 117.88 36.126 116.956 36.126C116.209 36.126 115.537 35.9627 114.94 35.636C114.352 35.3 113.89 34.8287 113.554 34.222C113.227 33.6153 113.064 32.9153 113.064 32.122C113.064 31.3193 113.227 30.6147 113.554 30.008C113.88 29.4013 114.338 28.9347 114.926 28.608C115.514 28.2813 116.19 28.118 116.956 28.118C117.693 28.118 118.351 28.2767 118.93 28.594C119.518 28.9113 119.97 29.364 120.288 29.952C120.614 30.5307 120.778 31.198 120.778 31.954ZM118.748 31.394C118.738 30.89 118.556 30.4887 118.202 30.19C117.847 29.882 117.413 29.728 116.9 29.728C116.414 29.728 116.004 29.8773 115.668 30.176C115.341 30.4653 115.14 30.8713 115.066 31.394H118.748Z" fill="#1E1E2E"/>
</svg>
